HIERARCHY
ROOT Hips
{
	OFFSET 0.000000 0.000000 0.000000
	CHANNELS 6 Xposition Yposition Zposition Zrotation Yrotation Xrotation 
	JOINT LHipJoint
	{
		OFFSET 0.000000 0.000000 0.000000
		CHANNELS 3 Zrotation Yrotation Xrotation
		JOINT LeftUpLeg
		{
			OFFSET 1.363060 -1.794630 0.839290
			CHANNELS 3 Zrotation Yrotation Xrotation
			JOINT LeftLeg
			{
				OFFSET 2.448110 -6.726130 0.000000
				CHANNELS 3 Zrotation Yrotation Xrotation
				JOINT LeftFoot
				{
					OFFSET 2.562200 -7.039590 0.000000
					CHANNELS 3 Zrotation Yrotation Xrotation
					JOINT LeftToeBase
					{
						OFFSET 0.157640 -0.433110 2.322550
						CHANNELS 3 Zrotation Yrotation Xrotation
						End Site
						{
							OFFSET 0.000000 0.000000 0.000000
						}
					}
				}
			}
		}
	}
	JOINT RHipJoint
	{
		OFFSET 0.000000 0.000000 0.000000
		CHANNELS 3 Zrotation Yrotation Xrotation
		JOINT RightUpLeg
		{
			OFFSET -1.305520 -1.794630 0.839290
			CHANNELS 3 Zrotation Yrotation Xrotation
			JOINT RightLeg
			{
				OFFSET -2.542530 -6.985550 0.000000
				CHANNELS 3 Zrotation Yrotation Xrotation
				JOINT RightFoot
				{
					OFFSET -2.568260 -7.056230 0.000000
					CHANNELS 3 Zrotation Yrotation Xrotation
					JOINT RightToeBase
					{
						OFFSET -0.164730 -0.452590 2.363150
						CHANNELS 3 Zrotation Yrotation Xrotation
						End Site
						{
							OFFSET 0.000000 0.000000 0.000000
						}
					}
				}
			}
		}
	}
}
MOTION
Frames: 16
Frame Time: 0.008333
4.545333 15.615291 -5.986610 -178.807723 22.374559 -155.965223 -14.275875 1.815817 -2.492203 -6.617405 2.556610 -14.269735 -0.740857 2.931188 51.618756 -0.448961 -8.747513 -6.812941 0.313100 -0.000000 -69.947400 6.270288 0.530045 -2.100010 14.236760 -4.051029 -65.475785 2.160358 -5.171618 51.783645 0.458943 4.933786 -5.743254 0.185800 -0.000000 -27.849500
4.639813 15.591142 -6.131975 -179.027105 21.696078 -156.271221 -14.417263 1.858542 -2.448614 -6.203925 2.384471 -14.192436 -0.558345 3.036410 52.661745 -0.431494 -8.970456 -5.102682 0.059100 -0.000000 -70.887200 6.260011 0.609166 -2.289455 13.912245 -4.427938 -65.267582 1.962722 -5.266960 53.727145 0.281669 4.231971 -7.159836 0.089600 -0.000000 -27.617699
4.730313 15.571223 -6.275440 -179.196771 21.057267 -156.520660 -14.564767 1.890085 -2.411018 -5.792534 2.284668 -14.278509 -0.365318 3.142781 53.793893 -0.390996 -9.084046 -3.253215 -0.243000 0.000000 -71.427900 6.241292 0.659801 -2.472203 13.721173 -4.819275 -64.987351 1.805998 -5.341608 55.375147 0.110748 3.544482 -8.487422 0.029300 -0.000000 -28.486599
4.817555 15.555296 -6.416662 -179.330162 20.461447 -156.717803 -14.712901 1.908899 -2.382690 -5.399273 2.273522 -14.526759 -0.165072 3.247274 55.004427 -0.324864 -9.061207 -1.273592 -0.582400 0.000000 -71.443499 6.218402 0.685172 -2.641831 13.635091 -5.210728 -64.647482 1.685735 -5.397156 56.738928 -0.052079 2.887004 -9.723313 0.001599 0.000000 -30.086901
4.902128 15.543045 -6.555412 -179.440077 19.910297 -156.868871 -14.855790 1.913223 -2.367056 -5.042421 2.360641 -14.928505 0.037033 3.347274 56.281381 -0.232159 -8.872371 0.793454 -0.935501 -0.000000 -70.742599 6.195807 0.690179 -2.793228 13.620582 -5.590072 -64.261813 1.596510 -5.435758 57.844960 -0.205187 2.273826 -10.870196 0.001500 -0.000000 -32.022800
4.984604 15.534082 -6.691443 -179.540764 19.403849 -156.982847 -14.987975 1.901597 -2.367980 -4.738903 2.552391 -15.470767 0.235069 3.441203 57.613180 -0.113663 -8.484813 2.885862 -1.267299 0.000000 -69.162500 6.177877 0.680470 -2.923229 13.644083 -5.948157 -63.842845 1.532154 -5.459968 58.731036 -0.347137 1.716593 -11.934146 0.023401 0.000000 -33.914500
5.065400 15.528075 -6.824621 -179.644694 18.941045 -157.068595 -15.105519 1.872965 -2.389276 -4.502318 2.852047 -16.140063 0.423367 3.528841 58.989995 0.027910 -7.866103 4.922314 -1.534200 0.000000 -66.594600 6.167984 0.661569 -3.030222 13.674804 -6.277918 -63.401879 1.485970 -5.472421 59.439998 -0.477071 1.220602 -12.918312 0.061601 0.000000 -35.482500
5.144654 15.524752 -6.954834 -179.762244 18.518909 -157.135111 -15.204799 1.827538 -2.434128 -4.346489 3.255703 -16.919173 0.596876 3.611170 60.400865 0.187359 -6.992414 6.797099 -1.688800 -0.000000 -63.004900 6.169320 0.639203 -3.114310 13.683195 -6.577045 -62.949166 1.451347 -5.476072 60.015586 -0.594583 0.785864 -13.823401 0.110800 0.000000 -36.574400
5.222424 15.523963 -7.082000 -179.901873 18.133781 -157.189706 -15.284472 1.766182 -2.504731 -4.278712 3.756341 -17.794474 0.752944 3.690382 61.835385 0.359007 -5.849970 8.409832 -1.693000 -0.000000 -58.525300 6.183161 0.617820 -3.177090 13.648885 -6.845384 -62.493297 1.422378 -5.473451 60.496410 -0.700053 0.406050 -14.647514 0.166500 0.000000 -37.170400
5.298501 15.525660 -7.206136 179.931317 17.779902 -157.238562 -15.343863 1.690822 -2.601292 -4.304792 4.338976 -18.751538 0.891034 3.768945 63.280371 0.537212 -4.443719 9.671515 -1.527500 -0.000000 -53.458600 6.210042 0.601203 -3.221698 13.557021 -7.088681 -62.041188 1.394636 -5.467071 60.914138 -0.794269 0.072313 -15.390002 0.225400 0.000000 -37.346800
5.372722 15.529924 -7.327230 179.732877 17.451245 -157.285838 -15.383225 1.603870 -2.722030 -4.427158 4.981541 -19.777916 1.012488 3.849187 64.722472 0.717639 -2.799747 10.522189 -1.198900 0.000000 -48.246300 6.249387 0.592111 -3.252599 13.400609 -7.316295 -61.597954 1.365391 -5.459059 61.291249 -0.878357 -0.225107 -16.052723 0.284900 -0.000000 -37.240800
5.444779 15.536866 -7.445333 179.501531 17.140592 -157.333786 -15.403516 1.508069 -2.862964 -4.645908 5.656315 -20.863531 1.119615 3.932908 66.149825 0.897288 -0.965633 10.932366 -0.738800 -0.000001 -43.348400 6.299734 0.592217 -3.274919 13.179534 -7.541156 -61.166357 1.333855 -5.451059 61.639682 -0.953501 -0.494732 -16.639679 0.343500 -0.000000 -37.015800
5.514291 15.546619 -7.560575 179.239583 16.840128 -157.382124 -15.406332 1.406216 -3.018725 -4.958327 6.333688 -22.001817 1.214875 4.021490 67.554937 1.073928 0.994185 10.895445 -0.197900 -0.000001 -39.100600 6.358891 0.601987 -3.294083 12.900350 -7.778344 -60.746772 1.301061 -5.444230 61.961813 -1.020672 -0.742153 -17.156907 0.400100 0.000000 -36.831600
5.581091 15.559282 -7.673058 178.949142 16.542946 -157.429930 -15.393310 1.300906 -3.183593 -5.358664 6.986992 -23.190288 1.300068 4.115912 68.932877 1.245506 3.006139 10.419668 0.363300 0.000000 -35.642100 6.424461 0.620961 -3.314957 12.574634 -8.041883 -60.337468 1.269073 -5.439052 62.252160 -1.080768 -0.971052 -17.611028 0.454300 -0.000000 -36.823300
5.644989 15.574853 -7.782959 178.636580 16.242752 -157.474473 -15.366443 1.194214 -3.351862 -5.838700 7.594372 -24.428749 1.376172 4.216597 70.278439 1.410210 4.996181 9.528240 0.883400 0.000000 -32.945800 6.493607 0.647727 -3.341747 12.217716 -8.343725 -59.934526 1.240908 -5.435446 62.499383 -1.134322 -1.181911 -18.009002 0.505400 0.000000 -37.080500
5.705877 15.593290 -7.890579 178.310307 15.934992 -157.511198 -15.327988 1.087558 -3.517848 -6.386756 8.139698 -25.718648 1.443091 4.323300 71.582949 1.566586 6.896594 8.261800 1.308300 -0.000000 -30.887400 6.563083 0.680111 -3.377285 11.847989 -8.690431 -59.533387 1.219692 -5.432630 62.689341 -1.181802 -1.374057 -18.357058 0.553200 -0.000000 -37.639600
